<svg className="lg:h-24 lg:w-24 md:w-20 md:h-20 h-8 w-8" viewBox="0 0 182 144" fill="none" xmlns="http://www.w3.org/2000/svg">
<path d="M169.181 142.134C160.809 146.195 149.646 143.488 144.065 135.366L128.717 116.415H53.3704L38.022 135.366C31.0455 144.842 18.4878 146.195 8.72065 139.427C1.74413 134.012 -1.04648 125.89 0.348826 119.122L10.116 69.0366C12.9066 52.7927 28.2549 40.6098 44.9986 40.6098H84.0671V20.3049C84.0671 9.47562 92.4389 0 103.601 0H146.856C151.042 0 153.832 2.70732 153.832 6.7683C153.832 10.8293 151.042 13.5366 146.856 13.5366H104.997C100.811 13.5366 98.0201 16.2439 98.0201 18.9512V40.6098H137.089C153.832 40.6098 169.181 52.7927 171.971 69.0366L181.738 119.122C183.134 128.598 178.948 138.073 169.181 142.134ZM70.114 74.4513C70.114 63.622 60.3469 54.1464 49.1845 54.1464C38.022 54.1464 28.2549 63.622 28.2549 74.4513C28.2549 85.2806 38.022 94.7562 49.1845 94.7562C60.3469 94.7562 70.114 85.2806 70.114 74.4513ZM153.832 74.4513C153.832 70.3903 151.042 67.683 146.856 67.683H139.879V60.9147C139.879 56.8537 137.089 54.1464 132.903 54.1464C128.717 54.1464 125.926 56.8537 125.926 60.9147V67.683H118.95C114.764 67.683 111.973 70.3903 111.973 74.4513C111.973 78.5123 114.764 81.2196 118.95 81.2196H125.926V87.9879C125.926 92.0488 128.717 94.7562 132.903 94.7562C137.089 94.7562 139.879 92.0488 139.879 87.9879V81.2196H146.856C151.042 81.2196 153.832 78.5123 153.832 74.4513Z" fill="white"/>
</svg>
