<svg className="lg:h-24 lg:w-24 md:w-20 md:h-20 h-8 w-8" viewBox="0 0 199 167" fill="none" xmlns="http://www.w3.org/2000/svg">
<path d="M39.093 5.97598e-07C37.1603 -0.000608655 35.2638 0.464644 33.6063 1.34599C31.9488 2.22734 30.5927 3.49162 29.683 5.00361L1.25423 52.2669C0.282814 53.8819 -0.13892 55.7122 0.0402312 57.5356C0.219383 59.359 0.991714 61.0971 2.26345 62.5388L91.1035 163.367C92.1006 164.499 93.3753 165.414 94.8309 166.043C96.2865 166.673 97.8847 167 99.5042 167C101.124 167 102.722 166.673 104.178 166.043C105.633 165.414 106.908 164.499 107.905 163.367L196.745 62.5388C198.014 61.0958 198.784 59.3571 198.961 57.5337C199.137 55.7103 198.713 53.8807 197.74 52.2669L169.311 5.00361C168.403 3.49351 167.049 2.23046 165.394 1.34923C163.739 0.468004 161.846 0.00167452 159.915 5.97598e-07H39.093ZM26.5417 50.4142L45.4895 18.9053H63.6413L54.7573 50.4142H26.5417ZM35.2977 69.3195H57.2448L71.8714 110.823L35.2977 69.3195ZM79.5756 69.3195H119.433L99.5042 125.859L79.5756 69.3195ZM141.764 69.3195H163.711L127.137 110.823L141.778 69.3195H141.764ZM172.467 50.4142H144.251L135.367 18.9053H153.519L172.467 50.4142ZM122.276 50.4142H76.7327L85.6167 18.9053H113.392L122.276 50.4142Z" fill="white"/>
</svg>
