<svg className="lg:h-24 lg:w-24 md:w-20 md:h-20 h-6 w-6  " viewBox="0 0 173 167" fill="none" xmlns="http://www.w3.org/2000/svg">
<path d="M166.392 26.1722L89.5248 0.483045C87.5472 -0.161015 85.4171 -0.161015 83.4395 0.483045L6.73264 26.092H6.5725L6.17215 26.2525L5.69173 26.4934L5.13124 26.7342L4.81096 26.8948L4.33054 27.2159L4.09033 27.3764L3.60991 27.6975C3.60991 27.7401 3.59304 27.781 3.56301 27.8111C3.53298 27.8412 3.49224 27.8581 3.44977 27.8581L2.88929 28.3398C2.88929 28.3611 2.88085 28.3815 2.86583 28.3965C2.85082 28.4116 2.83045 28.4201 2.80922 28.4201L2.24873 29.0623L2.08859 29.3031C2.00497 29.3569 1.93334 29.4275 1.87823 29.5104C1.82311 29.5933 1.78569 29.6867 1.76831 29.7848L1.5281 30.0256L1.28789 30.427C1.20782 30.5876 1.12775 30.6679 1.12775 30.7481L0.88754 31.2298L0.7274 31.5509L0.487191 32.2734C0.432975 32.3716 0.405368 32.4823 0.407121 32.5945C0.318112 32.7698 0.263734 32.9606 0.24698 33.1565C0.24698 33.2368 0.166912 33.3973 0.166912 33.4776C0.166912 33.5579 0.0868417 33.879 0.0868417 34.0396V34.3607C0.0130083 34.6761 -0.0139729 35.0007 0.00677159 35.324V99.547C0.00677159 102.102 1.01908 104.552 2.821 106.359C4.62292 108.166 7.06685 109.18 9.61515 109.18C12.1635 109.18 14.6074 108.166 16.4093 106.359C18.2112 104.552 19.2235 102.102 19.2235 99.547V48.6503L38.2001 55.0726C32.3414 66.3252 30.5833 79.275 33.229 91.6883C35.8748 104.102 42.7585 115.2 52.6927 123.069C39.1004 129.409 27.5587 139.451 19.3837 152.049C18.6897 153.109 18.2106 154.295 17.9739 155.54C17.7371 156.785 17.7473 158.065 18.0038 159.306C18.2603 160.547 18.7582 161.726 19.4689 162.774C20.1796 163.822 21.0893 164.72 22.1461 165.416C23.2028 166.112 24.3859 166.592 25.6278 166.829C26.8697 167.067 28.146 167.056 29.384 166.799C30.622 166.542 31.7973 166.043 32.8428 165.33C33.8884 164.618 34.7837 163.706 35.4777 162.646C40.9911 154.114 48.5462 147.1 57.4548 142.244C66.3633 137.389 76.3422 134.845 86.4822 134.845C96.6222 134.845 106.601 137.389 115.51 142.244C124.418 147.1 131.973 154.114 137.487 162.646C138.373 163.982 139.575 165.077 140.986 165.834C142.397 166.59 143.973 166.984 145.574 166.981C147.419 166.984 149.225 166.455 150.778 165.456C152.917 164.046 154.412 161.844 154.938 159.332C155.463 156.82 154.975 154.202 153.581 152.049C145.406 139.451 133.864 129.409 120.272 123.069C130.206 115.2 137.09 104.102 139.735 91.6883C142.381 79.275 140.623 66.3252 134.764 55.0726L166.392 44.4758C168.314 43.8423 169.988 42.6165 171.175 40.9732C172.361 39.3298 173 37.3528 173 35.324C173 33.2952 172.361 31.3182 171.175 29.6749C169.988 28.0315 168.314 26.8057 166.392 26.1722ZM86.4822 19.7499L133.003 35.324L116.348 40.8633L86.4822 50.8981L56.6161 40.8633L39.9616 35.324L86.4822 19.7499ZM121.713 80.2801C121.707 85.7623 120.429 91.168 117.98 96.0693C115.53 100.971 111.976 105.233 107.599 108.519C103.222 111.805 98.1425 114.024 92.7622 115.001C87.3818 115.979 81.8484 115.687 76.6 114.149C71.3515 112.611 66.5322 109.87 62.5233 106.142C58.5144 102.413 55.4261 97.8008 53.5028 92.6689C51.5795 87.537 50.874 82.0268 51.4422 76.5742C52.0103 71.1217 53.8365 65.8766 56.7763 61.2541L83.4395 70.165C85.4171 70.8091 87.5472 70.8091 89.5248 70.165L116.188 61.2541C119.815 66.932 121.733 73.5376 121.713 80.2801Z" fill="white"/>
</svg>
